<?xml version="1.0" encoding="UTF-8" standalone="no"?>
<svg width="612px" height="612px" viewBox="0 0 612 612" version="1.1" xmlns="http://www.w3.org/2000/svg" xmlns:xlink="http://www.w3.org/1999/xlink" xmlns:sketch="http://www.bohemiancoding.com/sketch/ns">
    <g id="Page-1" stroke="none" stroke-width="1" fill="none" fill-rule="evenodd" sketch:type="MSPage">
        <g id="Artboard-6" sketch:type="MSArtboardGroup" fill="#2a2a5f">
            <g id="Layer-1" sketch:type="MSLayerGroup" transform="translate(2.000000, 2.000000)">
                <path d="M303.979263,0.990237915 C345.591925,0.990237915 384.881569,8.96949524 421.848166,24.9280099 C458.814763,40.8865147 490.933292,62.5012117 518.203703,89.7721011 C545.474114,117.04299 567.088532,149.162016 583.04676,186.129209 C599.004988,223.096401 606.984157,262.386678 606.984157,304.00001 C606.984157,331.876919 603.348098,358.743775 596.07599,384.600609 C588.801883,410.455482 578.602708,434.595221 565.472486,457.019974 C552.342264,479.442678 536.58602,499.845346 518.203703,518.227899 C499.823406,536.610521 479.419106,552.36901 456.996734,565.497443 C434.572392,578.627876 410.434982,588.829205 384.577564,596.10144 C358.722147,603.373665 331.855723,607.009782 303.979263,607.009782 C276.102802,607.009782 249.236378,603.373665 223.379961,596.10144 C197.523543,588.827215 173.384134,578.627876 150.961771,565.497443 C128.539409,552.36701 108.13709,536.610512 89.7547828,518.227899 C71.3724859,499.847336 55.6162314,479.442678 42.4860193,457.019974 C29.3558073,434.595211 19.1546425,410.457443 11.8825251,384.600609 C4.6104175,358.743775 0.974358777,331.876919 0.974358777,304.00001 C0.974358777,276.123101 4.6104175,249.256244 11.882535,223.399411 C19.1546524,197.542577 29.3558172,173.402778 42.4860292,150.980055 C55.6162413,128.557332 71.3724958,108.154674 89.7547927,89.7720813 C108.13709,71.3894885 128.539429,55.6329803 150.961781,42.5025668 C173.384143,29.3721334 197.523533,19.1708143 223.379951,11.8985699 C249.236369,4.62634528 276.102793,0.990228013 303.979253,0.990228013 L303.979263,0.990237915 Z M120,173.003757 C120,168.583404 123.573251,165 128.006625,165 L478.993375,165 C483.415312,165 487,168.584389 487,173.003757 L487,214.996243 C487,219.416596 483.426749,223 478.993375,223 L128.006625,223 C123.584688,223 120,219.415611 120,214.996243 L120,173.003757 Z M120,283.003757 C120,278.583404 123.573251,275 128.006625,275 L478.993375,275 C483.415312,275 487,278.584389 487,283.003757 L487,324.996243 C487,329.416596 483.426749,333 478.993375,333 L128.006625,333 C123.584688,333 120,329.415611 120,324.996243 L120,283.003757 Z M120,393.003757 C120,388.583404 123.573251,385 128.006625,385 L478.993375,385 C483.415312,385 487,388.584389 487,393.003757 L487,434.996243 C487,439.416596 483.426749,443 478.993375,443 L128.006625,443 C123.584688,443 120,439.415611 120,434.996243 L120,393.003757 Z" id="svg_1" sketch:type="MSShapeGroup"></path>
            </g>
        </g>
    </g>
</svg>